HIERARCHY
ROOT Hips
{
	OFFSET -3.958830 18.904000 13.208200
	CHANNELS 6 Xposition Yposition Zposition Zrotation Yrotation Xrotation 
	JOINT LHipJoint
	{
		OFFSET 0.000000 0.000000 0.000000
		CHANNELS 3 Zrotation Yrotation Xrotation
		JOINT LeftUpLeg
		{
			OFFSET 1.800000 -1.400000 0.085000
			CHANNELS 3 Zrotation Yrotation Xrotation
			JOINT LeftLeg
			{
				OFFSET 2.215000 -6.000000 0.000000
				CHANNELS 3 Zrotation Yrotation Xrotation
				JOINT LeftFoot
				{
					OFFSET 2.500000 -6.900000 0.000000
					CHANNELS 3 Zrotation Yrotation Xrotation
					JOINT LeftToeBase
					{
						OFFSET 0.200000 -0.500000 1.950000
						CHANNELS 3 Zrotation Yrotation Xrotation
						End Site
						{
							OFFSET 0.000000 0.000000 0.000000
						}
					}
				}
			}
		}
	}
	JOINT RHipJoint
	{
		OFFSET 0.000000 0.000000 0.000000
		CHANNELS 3 Zrotation Yrotation Xrotation
		JOINT RightUpLeg
		{
			OFFSET -1.800000 -1.400000 0.085000
			CHANNELS 3 Zrotation Yrotation Xrotation
			JOINT RightLeg
			{
				OFFSET -2.215000 -6.000000 0.000000
				CHANNELS 3 Zrotation Yrotation Xrotation
				JOINT RightFoot
				{
					OFFSET -2.500000 -6.900000 0.000000
					CHANNELS 3 Zrotation Yrotation Xrotation
					JOINT RightToeBase
					{
						OFFSET -0.200000 -0.500000 1.950000
						CHANNELS 3 Zrotation Yrotation Xrotation
						End Site
						{
							OFFSET 0.000000 0.000000 0.000000
						}
					}
				}
			}
		}
	}
	JOINT LowerBack
	{
		OFFSET 0.000000 0.000000 0.000000
		CHANNELS 3 Zrotation Yrotation Xrotation
		JOINT Spine
		{
			OFFSET -0.087000 1.940000 -0.288900
			CHANNELS 3 Zrotation Yrotation Xrotation
			JOINT Spine1
			{
				OFFSET 0.000000 1.950000 0.060000
				CHANNELS 3 Zrotation Yrotation Xrotation
				JOINT Neck
				{
					OFFSET 0.000000 0.000000 0.000000
					CHANNELS 3 Zrotation Yrotation Xrotation
					JOINT Neck1
					{
						OFFSET 0.000000 1.600000 0.340000
						CHANNELS 3 Zrotation Yrotation Xrotation
						JOINT Head
						{
							OFFSET 0.000000 1.667000 -0.240000
							CHANNELS 3 Zrotation Yrotation Xrotation
							End Site
							{
								OFFSET 0.000000 0.000000 0.000000
							}
						}
					}
				}
				JOINT LeftShoulder
				{
					OFFSET 0.000000 0.000000 0.000000
					CHANNELS 3 Zrotation Yrotation Xrotation
					JOINT LeftArm
					{
						OFFSET 2.700000 1.550000 -0.730000
						CHANNELS 3 Zrotation Yrotation Xrotation
						JOINT LeftForeArm
						{
							OFFSET 5.450000 0.000000 0.000000
							CHANNELS 3 Zrotation Yrotation Xrotation
							JOINT LeftHand
							{
								OFFSET 3.450000 0.000000 0.000000
								CHANNELS 3 Zrotation Yrotation Xrotation
								JOINT LeftHandIndex1
								{
									OFFSET 0.750000 0.000000 0.000000
									CHANNELS 3 Zrotation Yrotation Xrotation
									End Site
									{
										OFFSET 0.000000 0.000000 0.000000
									}
								}
							}
						}
					}
				}
				JOINT RightShoulder
				{
					OFFSET 0.000000 0.000000 0.000000
					CHANNELS 3 Zrotation Yrotation Xrotation
					JOINT RightArm
					{
						OFFSET -2.700000 1.550000 -0.730000
						CHANNELS 3 Zrotation Yrotation Xrotation
						JOINT RightForeArm
						{
							OFFSET -5.450000 0.000000 0.000000
							CHANNELS 3 Zrotation Yrotation Xrotation
							JOINT RightHand
							{
								OFFSET -3.450000 0.000000 0.000000
								CHANNELS 3 Zrotation Yrotation Xrotation
								JOINT RightHandIndex1
								{
									OFFSET -0.750000 0.000000 0.000000
									CHANNELS 3 Zrotation Yrotation Xrotation
									End Site
									{
										OFFSET 0.000000 0.000000 0.000000
									}
								}
							}
						}
					}
				}
			}
		}
	}
}
MOTION
Frames: 14
Frame Time: 0.016667
-0.076510 16.981670 -1.155430 -0.479601 -33.390493 -3.015354 -14.710593 13.625442 3.211787 6.526710 -0.619629 -1.488237 -9.407814 5.785011 6.736919 -0.304178 4.836937 3.135259 0.040250 0.112940 -0.230450 18.495260 -11.161856 2.639738 -14.871633 -1.233256 -15.021704 0.021467 -2.980254 4.288698 0.076683 -3.150990 3.416066 0.317630 0.738960 -0.037840 -4.449619 -2.053958 -7.315987 10.774779 -9.446189 23.349578 -10.077354 -4.523809 -10.604762 -3.740569 -9.169654 -11.488435 -20.693275 21.657661 23.799696 7.052230 14.367340 0.672140 14.025089 -7.693508 5.626316 32.587202 -1.956282 -6.788679 133.001986 23.756220 51.831901 -4.761208 2.842359 0.041870 0.469740 -0.388120 0.204210 -5.202802 8.596575 0.650298 -40.259358 -17.323993 -1.670077 -125.683344 -23.331981 44.985949 2.779549 -1.872771 -0.435730 0.497010 0.216810 -0.019390 
-0.133610 16.968520 -1.158400 0.241610 -33.025085 -2.512834 -14.654394 13.472231 3.168539 5.736505 -0.665546 -1.739269 -8.598188 5.457422 6.311700 -0.388308 4.644938 3.194530 0.096740 0.178060 -0.211480 18.554011 -11.246682 2.737278 -15.196231 -1.242077 -14.541017 -0.086426 -2.915626 3.075501 0.022279 -3.209966 3.394334 0.367060 0.732610 -0.058920 -4.664319 -1.597087 -7.319005 10.818791 -9.181905 22.056972 -10.947087 -4.170488 -11.354558 -4.648250 -9.385945 -11.176879 -21.409281 21.944036 24.712688 9.373880 13.428750 -0.903390 15.235340 -6.522204 5.423329 29.486295 -3.047788 -6.940081 137.073056 22.979146 54.440394 -4.739417 2.839683 0.092500 0.431150 -0.364310 0.220390 -4.956612 7.263344 0.238978 -39.439215 -17.150839 -1.448361 -128.496784 -22.882631 47.324691 2.772078 -1.821393 -0.449760 0.552850 0.209140 -0.022340 
-0.179730 16.955660 -1.161100 0.756708 -32.213931 -2.131775 -14.612351 13.325313 3.114046 5.642713 -0.732127 -1.948115 -8.327264 5.323054 6.067619 -0.400356 4.575560 3.243865 0.087770 0.195280 -0.252720 18.606789 -11.299549 2.802351 -15.541164 -1.300309 -14.089640 -0.100542 -2.871702 2.144726 0.025491 -3.339225 3.370298 0.396390 0.787340 -0.080700 -4.841199 -1.229896 -7.313741 11.091544 -9.068235 20.988658 -11.891519 -3.811653 -11.045125 -5.245772 -9.409060 -10.733030 -20.991981 21.081895 24.394183 9.679610 12.220010 -0.360440 16.130964 -5.723884 5.227147 27.722022 -4.032025 -7.225428 140.209081 22.737255 57.251791 -4.791879 2.849787 0.036990 0.463710 -0.406820 0.242580 -5.012233 6.352208 -0.085555 -40.025067 -17.401569 -1.089089 -130.956972 -24.728163 53.340118 2.792056 -1.780964 -0.461880 0.589110 0.209950 0.009710 
-0.211930 16.943550 -1.169030 1.298063 -30.320653 -2.575441 -14.575071 13.247080 3.083492 6.348463 -0.846016 -1.725689 -8.643445 5.422721 6.365531 -0.384472 4.650886 3.227276 0.094680 0.204020 -0.267620 18.627882 -11.355492 2.857748 -16.889603 -1.554091 -13.097320 0.570851 -3.033049 1.787368 0.002386 -3.558508 3.291541 0.412710 0.804970 -0.084840 -4.897755 -0.992223 -7.381539 10.537866 -8.465962 21.919645 -11.609288 -3.361090 -11.698433 -5.661219 -9.212378 -10.517766 -20.442574 19.804998 24.837199 9.872960 10.777900 0.146960 17.002920 -5.172720 5.297584 26.862123 -7.545953 -7.743774 142.583916 23.673570 61.815609 -4.831913 2.835918 0.005070 0.473970 -0.433000 0.255000 -5.108378 5.426380 -0.566519 -42.906607 -17.800940 0.300330 -130.498629 -26.985812 57.943916 2.809577 -1.694367 -0.459830 0.588100 0.205520 0.025330 
-0.233800 16.934810 -1.177520 1.598085 -29.253690 -3.238036 -14.505974 13.147129 3.057604 6.587727 -0.889351 -1.375069 -8.758100 5.529062 6.963279 -0.369303 4.678614 3.217170 0.115610 0.216410 -0.256900 18.665251 -11.529420 2.935413 -17.648866 -1.658018 -12.234929 1.140283 -3.208742 1.862615 -0.025107 -3.738796 3.225321 0.418770 0.795800 -0.070520 -5.028568 -0.477791 -7.458719 10.684295 -7.333798 23.355518 -12.415515 -2.376978 -12.967713 -5.658790 -8.559168 -10.000110 -18.974203 18.277339 26.603222 9.725530 9.550410 0.502170 17.839675 -3.062558 5.110447 25.358677 -13.423128 -7.851130 144.053848 23.897245 64.231823 -4.854180 2.803891 -0.013100 0.477420 -0.439240 0.261920 -6.133936 2.755299 -1.509519 -42.603673 -16.929877 1.059131 -128.991534 -27.179430 57.380620 2.838621 -1.686791 -0.440460 0.561540 0.191000 0.029600 
-0.265420 16.920880 -1.169550 2.311700 -28.261644 -2.807402 -14.472428 13.137587 3.047155 5.941107 -1.026667 -2.252870 -8.529328 5.490536 7.560130 -0.348015 4.573791 3.276478 0.062290 0.160480 -0.334820 18.671935 -11.589507 3.004620 -18.473661 -1.579444 -12.534385 1.618451 -3.259842 1.927668 0.009893 -3.815908 3.210157 0.383970 0.859260 -0.077130 -5.042717 -0.280147 -7.518220 10.345850 -6.177052 23.404122 -12.747011 -1.950467 -15.038895 -5.425320 -8.189994 -10.166423 -18.181838 17.992178 27.214217 11.021900 8.620260 3.196150 17.551343 -2.376192 5.337188 25.740629 -15.477943 -7.594101 142.391134 25.121254 65.213271 -4.857419 2.805033 -0.062820 0.506840 -0.494900 0.282030 -6.063281 1.865278 -1.665653 -44.383013 -17.910318 2.815270 -124.430276 -27.374801 54.082285 2.859953 -1.667656 -0.445900 0.547090 0.206960 0.064930 
-0.290760 16.913930 -1.163770 2.214345 -28.860124 -2.814597 -14.446327 13.085153 3.011981 6.212943 -0.989661 -2.083406 -8.787092 5.615954 7.943527 -0.337914 4.591353 3.234333 0.115790 0.228490 -0.308100 18.699579 -11.608982 3.038338 -18.618957 -1.535741 -12.520060 2.235565 -3.326047 1.872330 -0.028524 -3.838153 3.181566 0.411210 0.817770 -0.062920 -5.158774 -0.108269 -7.471916 11.241596 -6.556957 23.045428 -13.819421 -2.393079 -15.546714 -5.514686 -8.435043 -10.125385 -18.904534 19.993758 27.098243 12.429190 9.980670 2.514620 16.440078 -2.489298 5.495332 25.561319 -14.474132 -6.896971 138.089079 25.464775 60.670566 -4.762455 2.880655 -0.042690 0.475560 -0.456030 0.286400 -4.838583 1.963995 -1.850129 -45.834527 -16.010874 3.329130 -120.511579 -27.995827 51.529610 2.839269 -1.649145 -0.414830 0.524150 0.187250 0.061740 
-0.311230 16.920440 -1.159070 1.732559 -28.704271 -2.477404 -14.450010 13.211678 3.036888 6.835073 -1.073523 -2.652068 -8.972848 5.732099 8.516647 -0.334901 4.579550 3.191436 0.129860 0.251880 -0.291970 18.657359 -11.609687 3.065456 -18.178734 -1.275534 -12.346142 2.583886 -3.335548 2.028658 -0.049221 -3.773048 3.192060 0.402200 0.758290 -0.051010 -5.011697 -0.206543 -7.508263 11.544734 -5.870356 24.199623 -13.307313 -2.473929 -18.268352 -4.809815 -8.302275 -10.699534 -18.976757 20.740307 28.388359 12.726100 10.921470 2.061670 16.974702 -1.576050 5.552278 24.328170 -15.305708 -6.293472 135.041495 26.378561 58.936972 -4.702822 2.922122 -0.004960 0.440460 -0.407860 0.268520 -6.293042 1.300557 -1.727600 -45.664022 -12.679608 3.482795 -116.417068 -28.245385 48.385861 2.837052 -1.635757 -0.388820 0.489110 0.183920 0.048760 
-0.326100 16.923300 -1.144960 1.847069 -28.075763 -1.560427 -14.419581 13.194819 3.040594 6.415234 -1.259469 -3.993301 -9.189020 5.764520 9.228139 -0.334707 4.513803 3.197268 0.131110 0.257560 -0.326700 18.661384 -11.654352 3.146744 -18.130648 -0.834169 -12.986790 3.144272 -3.315115 1.969026 -0.048737 -3.752066 3.184832 0.390350 0.786890 0.014030 -5.013791 0.068567 -7.568603 11.817438 -4.698029 24.202405 -13.663030 -1.816723 -20.142413 -4.858074 -7.685561 -10.809397 -17.040449 20.098735 28.788451 13.340970 10.249910 1.758000 19.345703 0.525847 5.385343 24.508139 -16.766384 -5.788802 131.109087 28.128233 56.997546 -4.751104 2.955885 -0.023710 0.462730 -0.395460 0.282610 -8.504813 -1.166507 -2.213921 -43.736982 -10.266228 3.573988 -113.988932 -25.060274 42.084164 2.858414 -1.688651 -0.344940 0.465250 0.203680 0.082350 
-0.334020 16.918870 -1.139640 1.535917 -26.866524 -0.668111 -14.470400 13.421734 3.081716 6.626540 -1.402570 -5.561403 -8.556616 5.590545 9.322070 -0.324054 4.385691 3.241574 0.071620 0.182210 -0.378590 18.576121 -11.582451 3.107368 -17.962676 -0.503857 -13.222969 2.850817 -3.254818 2.539654 -0.003496 -3.642736 3.238200 0.328490 0.809250 0.024890 -4.715316 -0.403668 -7.611635 11.213754 -3.213084 24.601282 -11.878473 -1.056960 -21.928715 -4.088146 -7.700754 -11.336264 -17.292913 19.191372 29.414967 13.120600 9.092430 3.213190 19.629159 1.657065 5.391026 24.787327 -16.963886 -4.929918 127.033795 27.063618 51.306301 -4.737229 2.949154 -0.037610 0.470540 -0.409910 0.277730 -9.699058 -1.477979 -1.993690 -44.417665 -9.935368 4.242777 -109.870110 -23.345049 37.040444 2.878579 -1.684848 -0.334480 0.447010 0.231800 0.102040 
-0.335930 16.908250 -1.158370 1.945292 -27.099348 -1.437159 -14.483442 13.448824 3.074817 6.545853 -1.370153 -5.336781 -8.527836 5.674598 9.656259 -0.318097 4.409719 3.224372 0.037980 0.127790 -0.361430 18.570406 -11.575666 3.050228 -18.484114 -0.746220 -13.262968 2.733479 -3.389611 3.119826 -0.009307 -3.614586 3.237601 0.282950 0.769570 0.005130 -4.707675 -0.582304 -7.581686 10.736243 -4.040818 24.947140 -12.208228 -1.671806 -20.854272 -3.581099 -8.058545 -11.558100 -18.591450 19.584848 29.434732 12.846010 9.519430 2.993100 17.662474 -0.272247 5.643523 27.248770 -14.102158 -4.650338 124.458094 24.617302 45.637551 -4.629799 2.908273 0.013540 0.432670 -0.385040 0.244430 -8.612964 0.837758 -1.252761 -43.490176 -13.194401 3.794471 -109.636621 -20.824795 33.512287 2.880534 -1.701131 -0.349390 0.446040 0.244900 0.073810 
-0.328850 16.911830 -1.168670 2.179087 -28.225103 -2.782065 -14.521284 13.521759 3.096319 6.490124 -1.172575 -4.059319 -8.583474 5.829546 9.771836 -0.311361 4.527056 3.183082 0.018300 0.064770 -0.322780 18.538043 -11.528562 3.003858 -18.802453 -1.075750 -12.656500 2.578922 -3.487703 3.239088 -0.033486 -3.597676 3.241424 0.241930 0.719300 -0.043400 -4.620138 -0.895174 -7.574618 9.856455 -4.942854 25.419334 -11.422854 -2.506582 -20.214784 -3.258151 -8.508895 -11.917190 -20.810197 20.763565 31.186345 13.455740 10.132420 3.379000 14.922458 -2.600453 5.819750 28.368944 -11.033802 -3.844147 124.392538 21.581861 42.017496 -4.496548 2.868375 0.107810 0.368220 -0.360820 0.215100 -6.488719 3.866671 -0.237706 -44.048265 -13.431097 3.228547 -110.831662 -20.332425 33.963388 2.818369 -1.641220 -0.395990 0.462750 0.251360 0.022550 
-0.309040 16.897410 -1.179500 2.454713 -28.636514 -3.713311 -14.487376 13.439204 3.053345 6.045250 -1.070043 -3.333493 -8.244822 5.869629 10.308458 -0.255075 4.464155 3.209691 0.072990 0.140410 -0.275340 18.582258 -11.636876 2.971475 -19.494095 -1.395638 -12.686281 2.776355 -3.665303 4.056498 -0.061701 -3.644470 3.224009 0.260040 0.663210 -0.074400 -4.785550 -0.652375 -7.522808 10.176315 -6.155527 25.134032 -12.743882 -3.070405 -18.240011 -3.562201 -8.696547 -11.458075 -21.311985 20.882641 31.865566 13.593940 10.233250 3.171360 13.510386 -3.212547 5.405704 30.992414 -8.489491 -3.278017 125.097991 19.438883 40.004671 -4.390989 2.870534 0.107560 0.322880 -0.324220 0.238880 -5.105246 4.676269 -0.037025 -43.005699 -14.323527 2.592459 -114.705785 -19.083581 34.703773 2.838765 -1.672310 -0.367160 0.450540 0.177880 0.030710 
-0.282530 16.885530 -1.189340 2.271041 -28.714239 -4.285520 -14.486247 13.479097 3.054013 6.044612 -1.177868 -3.243618 -8.095639 5.955465 11.073498 -0.241248 4.489271 3.203289 0.079170 0.140280 -0.253040 18.573607 -11.699806 2.918826 -19.556198 -1.546495 -12.753051 2.602509 -3.739432 4.905502 -0.046520 -3.635958 3.230403 0.257990 0.641520 -0.092700 -4.762507 -0.659954 -7.502582 10.134493 -6.350968 26.037241 -12.636156 -2.817592 -17.901718 -3.462625 -8.770090 -11.297427 -21.696031 20.365320 32.448097 12.635610 10.022620 3.643990 13.021488 -3.203178 5.175039 30.798313 -8.974271 -3.312880 129.206214 17.228649 39.903110 -4.392383 2.834220 0.101530 0.315000 -0.327740 0.237860 -4.907755 4.981365 0.019334 -42.265780 -14.274961 1.917250 -119.102540 -20.236970 39.101128 2.854561 -1.687860 -0.368500 0.440430 0.156160 0.022580 
